<svg width="28" height="28" viewBox="0 0 28 28" fill="none" xmlns="http://www.w3.org/2000/svg">
<path d="M16.3333 11.6667V16.3333H11.6667V11.6667H16.3333ZM18.6667 11.6667H24.5V16.3333H18.6667V11.6667ZM16.3333 24.5H11.6667V18.6667H16.3333V24.5ZM18.6667 24.5V18.6667H24.5V23.3333C24.5 23.6428 24.3771 23.9395 24.1583 24.1583C23.9395 24.3771 23.6428 24.5 23.3333 24.5H18.6667ZM16.3333 3.5V9.33333H11.6667V3.5H16.3333ZM18.6667 3.5H23.3333C23.6428 3.5 23.9395 3.62292 24.1583 3.84171C24.3771 4.0605 24.5 4.35725 24.5 4.66667V9.33333H18.6667V3.5ZM9.33333 11.6667V16.3333H3.5V11.6667H9.33333ZM9.33333 24.5H4.66667C4.35725 24.5 4.0605 24.3771 3.84171 24.1583C3.62292 23.9395 3.5 23.6428 3.5 23.3333V18.6667H9.33333V24.5ZM9.33333 3.5V9.33333H3.5V4.66667C3.5 4.35725 3.62292 4.0605 3.84171 3.84171C4.0605 3.62292 4.35725 3.5 4.66667 3.5H9.33333Z" fill="white" fill-opacity="0.6"/>
</svg>
