<svg width="25" height="24" viewBox="0 0 25 24" fill="none" xmlns="http://www.w3.org/2000/svg">
<path d="M3.33334 3H21.3333C21.5986 3 21.8529 3.10536 22.0405 3.29289C22.228 3.48043 22.3333 3.73478 22.3333 4V20C22.3333 20.2652 22.228 20.5196 22.0405 20.7071C21.8529 20.8946 21.5986 21 21.3333 21H3.33334C3.06813 21 2.81377 20.8946 2.62624 20.7071C2.4387 20.5196 2.33334 20.2652 2.33334 20V4C2.33334 3.73478 2.4387 3.48043 2.62624 3.29289C2.81377 3.10536 3.06813 3 3.33334 3ZM20.3333 11H4.33334V19H20.3333V11ZM20.3333 9V5H4.33334V9H20.3333ZM9.33334 6H11.3333V8H9.33334V6ZM5.33334 6H7.33334V8H5.33334V6Z" fill="white"/>
</svg>
