<svg width="31" height="24" viewBox="0 0 31 24" fill="none" xmlns="http://www.w3.org/2000/svg">
<path d="M30.3673 6.46531V10.1486L28.7804 9.22775L25.5869 7.38612L23.9804 6.46531L22.3739 5.54449L20.7869 4.62367L19.1804 3.68327L17.5935 4.62367L15.9869 5.54449L14.3804 6.46531L12.7935 7.38612L14.3804 8.30694L15.9869 9.22775L17.5935 10.1486L19.1804 11.0694L20.7869 11.9902L22.3739 12.9306L23.9804 13.8514L25.5869 14.7722L27.1739 15.6931L28.7804 16.6139L27.1739 17.5347L23.9804 19.3763L22.3739 20.3167L20.7869 21.2376L19.1804 22.1584L17.5935 23.0792L15.9869 24L14.3804 23.0792L12.7935 22.1584L11.1869 21.2376L9.6 20.3167L7.99347 19.3763L6.38694 18.4555L4.8 17.5347L3.19347 16.6139L1.60653 15.6931L0 14.7722L1.60653 13.8514L3.19347 12.9306L4.8 13.8514L6.38694 14.7722L7.99347 15.6931L9.6 16.6139L11.1869 17.5347L12.7935 18.4555L14.3804 19.3763L15.9869 20.3167L17.5935 19.3763L19.1804 18.4555L20.7869 17.5347L22.3739 16.6139L20.7869 15.6931L19.1804 14.7722L17.5935 13.8514L15.9869 12.9306L14.3804 11.9902L12.7935 11.0694L11.1869 10.1486L9.6 9.22775L6.38694 7.38612L7.99347 6.46531L9.6 5.54449L11.1869 4.62367L12.7935 3.68327L14.3804 2.76245L15.9869 1.84163L17.5935 0.920816L19.1804 0L20.7869 0.920816L22.3739 1.84163L23.9804 2.76245L25.5869 3.68327L27.1739 4.62367L28.7804 5.54449L30.3673 6.46531Z" fill="url(#paint0_linear)"/>
<path d="M16.3788 18.7298L5.40735 12.3821V8.6792L16.3788 15.027V18.7298Z" fill="url(#paint1_linear)"/>
<path d="M29.5053 15.3012L18.5339 8.973V5.27014L29.5053 11.6179V15.3012Z" fill="url(#paint2_linear)"/>
<defs>
<linearGradient id="paint0_linear" x1="31.5521" y1="-1.96637" x2="-11.2055" y2="40.7913" gradientUnits="userSpaceOnUse">
<stop stop-color="#FF667A" stop-opacity="0.98"/>
<stop offset="0.4221" stop-color="#FF82B1"/>
<stop offset="0.6955" stop-color="#FFA3E6"/>
<stop offset="1" stop-color="#FFC6FF"/>
</linearGradient>
<linearGradient id="paint1_linear" x1="-0.990406" y1="13.705" x2="17.4022" y2="13.705" gradientUnits="userSpaceOnUse">
<stop stop-color="#74E4FF"/>
<stop offset="1" stop-color="#00AAFF"/>
</linearGradient>
<linearGradient id="paint2_linear" x1="11.3834" y1="10.2922" x2="31.6414" y2="10.2922" gradientUnits="userSpaceOnUse">
<stop stop-color="#74E4FF"/>
<stop offset="1" stop-color="#00AAFF"/>
</linearGradient>
</defs>
</svg>
