<svg width="35" height="34" viewBox="0 0 35 34" fill="none" xmlns="http://www.w3.org/2000/svg">
<path d="M31.6667 18.8997C30.1533 18.3637 28.519 18.2672 26.953 18.6215C25.3871 18.9757 23.9535 19.7663 22.8182 20.9016C21.6829 22.0368 20.8924 23.4704 20.5381 25.0364C20.1839 26.6023 20.2803 28.2366 20.8164 29.75H4.74999C4.37427 29.75 4.01394 29.6007 3.74826 29.3351C3.48258 29.0694 3.33333 28.7091 3.33333 28.3333V5.66667C3.33333 5.29094 3.48258 4.93061 3.74826 4.66493C4.01394 4.39926 4.37427 4.25 4.74999 4.25H30.25C30.6257 4.25 30.9861 4.39926 31.2517 4.66493C31.5174 4.93061 31.6667 5.29094 31.6667 5.66667V18.8997ZM17.585 16.5509L8.50133 8.83717L6.66674 10.9962L17.6034 20.2824L28.3432 10.9891L26.4902 8.84567L17.5864 16.5509H17.585ZM30.25 25.5H34.5V28.3333H30.25V32.5833H27.4167V28.3333H23.1667V25.5H27.4167V21.25H30.25V25.5Z" fill="white"/>
</svg>
