<svg width="35" height="34" viewBox="0 0 35 34" fill="none" xmlns="http://www.w3.org/2000/svg">
<path d="M4.75001 4.25H30.25C30.6257 4.25 30.9861 4.39926 31.2517 4.66493C31.5174 4.93061 31.6667 5.29094 31.6667 5.66667V28.3333C31.6667 28.7091 31.5174 29.0694 31.2517 29.3351C30.9861 29.6007 30.6257 29.75 30.25 29.75H4.75001C4.37429 29.75 4.01395 29.6007 3.74828 29.3351C3.4826 29.0694 3.33334 28.7091 3.33334 28.3333V5.66667C3.33334 5.29094 3.4826 4.93061 3.74828 4.66493C4.01395 4.39926 4.37429 4.25 4.75001 4.25ZM28.8333 14.1667H6.16668V26.9167H28.8333V14.1667ZM7.58334 8.5V11.3333H10.4167V8.5H7.58334ZM13.25 8.5V11.3333H16.0833V8.5H13.25Z" fill="white"/>
</svg>
