<svg width="34" height="34" viewBox="0 0 34 34" fill="none" xmlns="http://www.w3.org/2000/svg">
<path d="M9.91666 16.2916C9.07948 16.2916 8.2505 16.1267 7.47705 15.8064C6.7036 15.486 6.00082 15.0164 5.40885 14.4244C4.81688 13.8325 4.3473 13.1297 4.02692 12.3562C3.70655 11.5828 3.54166 10.7538 3.54166 9.91663C3.54166 9.07945 3.70655 8.25047 4.02692 7.47702C4.3473 6.70357 4.81688 6.00079 5.40885 5.40882C6.00082 4.81685 6.7036 4.34727 7.47705 4.02689C8.2505 3.70652 9.07948 3.54163 9.91666 3.54163C11.6074 3.54163 13.2289 4.21328 14.4245 5.40882C15.62 6.60436 16.2917 8.22587 16.2917 9.91663C16.2917 11.6074 15.62 13.2289 14.4245 14.4244C13.2289 15.62 11.6074 16.2916 9.91666 16.2916ZM9.91666 30.4583C8.2259 30.4583 6.60439 29.7866 5.40885 28.5911C4.21331 27.3956 3.54166 25.774 3.54166 24.0833C3.54166 22.3925 4.21331 20.771 5.40885 19.5755C6.60439 18.3799 8.2259 17.7083 9.91666 17.7083C11.6074 17.7083 13.2289 18.3799 14.4245 19.5755C15.62 20.771 16.2917 22.3925 16.2917 24.0833C16.2917 25.774 15.62 27.3956 14.4245 28.5911C13.2289 29.7866 11.6074 30.4583 9.91666 30.4583ZM24.0833 16.2916C23.2461 16.2916 22.4172 16.1267 21.6437 15.8064C20.8703 15.486 20.1675 15.0164 19.5755 14.4244C18.9835 13.8325 18.514 13.1297 18.1936 12.3562C17.8732 11.5828 17.7083 10.7538 17.7083 9.91663C17.7083 9.07945 17.8732 8.25047 18.1936 7.47702C18.514 6.70357 18.9835 6.00079 19.5755 5.40882C20.1675 4.81685 20.8703 4.34727 21.6437 4.02689C22.4172 3.70652 23.2461 3.54163 24.0833 3.54163C25.7741 3.54163 27.3956 4.21328 28.5911 5.40882C29.7867 6.60436 30.4583 8.22587 30.4583 9.91663C30.4583 11.6074 29.7867 13.2289 28.5911 14.4244C27.3956 15.62 25.7741 16.2916 24.0833 16.2916ZM24.0833 30.4583C22.3926 30.4583 20.7711 29.7866 19.5755 28.5911C18.38 27.3956 17.7083 25.774 17.7083 24.0833C17.7083 22.3925 18.38 20.771 19.5755 19.5755C20.7711 18.3799 22.3926 17.7083 24.0833 17.7083C25.7741 17.7083 27.3956 18.3799 28.5911 19.5755C29.7867 20.771 30.4583 22.3925 30.4583 24.0833C30.4583 25.774 29.7867 27.3956 28.5911 28.5911C27.3956 29.7866 25.7741 30.4583 24.0833 30.4583Z" fill="white"/>
</svg>
