<svg width="19" height="19" viewBox="0 0 19 19" fill="none" xmlns="http://www.w3.org/2000/svg">
<path d="M8.875 0.375H1.75C1.54375 0.375 1.375 0.54375 1.375 0.75V7.875C1.375 8.08125 1.54375 8.25 1.75 8.25H8.875C9.08125 8.25 9.25 8.08125 9.25 7.875V0.75C9.25 0.54375 9.08125 0.375 8.875 0.375ZM7.65625 6.65625H2.96875V1.96875H7.65625V6.65625ZM18.25 0.375H11.125C10.9187 0.375 10.75 0.54375 10.75 0.75V7.875C10.75 8.08125 10.9187 8.25 11.125 8.25H18.25C18.4562 8.25 18.625 8.08125 18.625 7.875V0.75C18.625 0.54375 18.4562 0.375 18.25 0.375ZM17.0312 6.65625H12.3438V1.96875H17.0312V6.65625ZM18.25 9.75H11.125C10.9187 9.75 10.75 9.91875 10.75 10.125V17.25C10.75 17.4562 10.9187 17.625 11.125 17.625H18.25C18.4562 17.625 18.625 17.4562 18.625 17.25V10.125C18.625 9.91875 18.4562 9.75 18.25 9.75ZM17.0312 16.0312H12.3438V11.3438H17.0312V16.0312ZM7.9375 13.6875H4.9375V10.6875C4.9375 10.5844 4.85313 10.5 4.75 10.5H3.625C3.52187 10.5 3.4375 10.5844 3.4375 10.6875V13.6875H0.4375C0.334375 13.6875 0.25 13.7719 0.25 13.875V15C0.25 15.1031 0.334375 15.1875 0.4375 15.1875H3.4375V18.1875C3.4375 18.2906 3.52187 18.375 3.625 18.375H4.75C4.85313 18.375 4.9375 18.2906 4.9375 18.1875V15.1875H7.9375C8.04063 15.1875 8.125 15.1031 8.125 15V13.875C8.125 13.7719 8.04063 13.6875 7.9375 13.6875Z" fill="#262626" fill-opacity="0.45"/>
</svg>
