<svg width="28" height="30" viewBox="0 0 28 30" fill="none" xmlns="http://www.w3.org/2000/svg">
<path d="M16.6406 9.6875H11.8594C11.2717 9.6875 10.7969 10.1623 10.7969 10.75V28.8125C10.7969 29.4002 11.2717 29.875 11.8594 29.875H16.6406C17.2283 29.875 17.7031 29.4002 17.7031 28.8125V10.75C17.7031 10.1623 17.2283 9.6875 16.6406 9.6875ZM26.8672 0.125H22.0859C21.4982 0.125 21.0234 0.599805 21.0234 1.1875V28.8125C21.0234 29.4002 21.4982 29.875 22.0859 29.875H26.8672C27.4549 29.875 27.9297 29.4002 27.9297 28.8125V1.1875C27.9297 0.599805 27.4549 0.125 26.8672 0.125ZM6.41406 19.25H1.63281C1.04512 19.25 0.570312 19.7248 0.570312 20.3125V28.8125C0.570312 29.4002 1.04512 29.875 1.63281 29.875H6.41406C7.00176 29.875 7.47656 29.4002 7.47656 28.8125V20.3125C7.47656 19.7248 7.00176 19.25 6.41406 19.25Z" fill="white"/>
</svg>
